<svg xmlns="http://www.w3.org/2000/svg" viewbox="0 0 891 857" width="891" height="857"><defs></defs><g transform="matrix(1,0,0,1,-54.422491717,-71.242842747)">
<g>
	<g>
		<path d="M500.000000,671.502863C500.000000,671.502863 351.474164,585.751431 351.474164,585.751431 C351.474164,585.751431 351.474164,414.248569 351.474164,414.248569 C351.474164,414.248569 500.000000,328.497137 500.000000,328.497137 C500.000000,328.497137 648.525836,414.248569 648.525836,414.248569 C648.525836,414.248569 648.525836,585.751431 648.525836,585.751431 C648.525836,585.751431 500.000000,671.502863 500.000000,671.502863 Z" transform="matrix(1,0,0,1,0,0)" fill="#e8590c" stroke="#000000" stroke-width="8"/>
		<path d="M648.525836,414.248569C648.525836,414.248569 500.000000,328.497137 500.000000,328.497137 C500.000000,328.497137 500.000000,156.994274 500.000000,156.994274 C500.000000,156.994274 648.525836,71.242843 648.525836,71.242843 C648.525836,71.242843 797.051672,156.994274 797.051672,156.994274 C797.051672,156.994274 797.051672,328.497137 797.051672,328.497137 C797.051672,328.497137 648.525836,414.248569 648.525836,414.248569 Z" transform="matrix(1,0,0,1,0,0)" fill="#f08c00" stroke="#000000" stroke-width="8"/>
		<path d="M797.051672,671.502863C797.051672,671.502863 648.525836,585.751431 648.525836,585.751431 C648.525836,585.751431 648.525836,414.248569 648.525836,414.248569 C648.525836,414.248569 797.051672,328.497137 797.051672,328.497137 C797.051672,328.497137 945.577508,414.248569 945.577508,414.248569 C945.577508,414.248569 945.577508,585.751431 945.577508,585.751431 C945.577508,585.751431 797.051672,671.502863 797.051672,671.502863 Z" transform="matrix(1,0,0,1,0,0)" fill="#f08c00" stroke="#000000" stroke-width="8"/>
		<path d="M351.474164,414.248569C351.474164,414.248569 202.948328,328.497137 202.948328,328.497137 C202.948328,328.497137 202.948328,156.994274 202.948328,156.994274 C202.948328,156.994274 351.474164,71.242843 351.474164,71.242843 C351.474164,71.242843 500.000000,156.994274 500.000000,156.994274 C500.000000,156.994274 500.000000,328.497137 500.000000,328.497137 C500.000000,328.497137 351.474164,414.248569 351.474164,414.248569 Z" transform="matrix(1,0,0,1,0,0)" fill="#f08c00" stroke="#000000" stroke-width="8"/>
		<path d="M202.948328,671.502863C202.948328,671.502863 54.422492,585.751431 54.422492,585.751431 C54.422492,585.751431 54.422492,414.248569 54.422492,414.248569 C54.422492,414.248569 202.948328,328.497137 202.948328,328.497137 C202.948328,328.497137 351.474164,414.248569 351.474164,414.248569 C351.474164,414.248569 351.474164,585.751431 351.474164,585.751431 C351.474164,585.751431 202.948328,671.502863 202.948328,671.502863 Z" transform="matrix(1,0,0,1,0,0)" fill="#f08c00" stroke="#000000" stroke-width="8"/>
		<path d="M351.474164,928.757157C351.474164,928.757157 202.948328,843.005726 202.948328,843.005726 C202.948328,843.005726 202.948328,671.502863 202.948328,671.502863 C202.948328,671.502863 351.474164,585.751431 351.474164,585.751431 C351.474164,585.751431 500.000000,671.502863 500.000000,671.502863 C500.000000,671.502863 500.000000,843.005726 500.000000,843.005726 C500.000000,843.005726 351.474164,928.757157 351.474164,928.757157 Z" transform="matrix(1,0,0,1,0,0)" fill="#f08c00" stroke="#000000" stroke-width="8"/>
		<path d="M648.525836,928.757157C648.525836,928.757157 500.000000,843.005726 500.000000,843.005726 C500.000000,843.005726 500.000000,671.502863 500.000000,671.502863 C500.000000,671.502863 648.525836,585.751431 648.525836,585.751431 C648.525836,585.751431 797.051672,671.502863 797.051672,671.502863 C797.051672,671.502863 797.051672,843.005726 797.051672,843.005726 C797.051672,843.005726 648.525836,928.757157 648.525836,928.757157 Z" transform="matrix(1,0,0,1,0,0)" fill="#f08c00" stroke="#000000" stroke-width="8"/>
	</g>
</g></g></svg>